<svg width="294" height="235" viewBox="0 0 294 235" fill="none" xmlns="http://www.w3.org/2000/svg">
<path d="M248.67 144.513C246.574 148.985 242.105 151.848 237.572 152.417H198.364V134.142H227.093C227.446 134.142 227.735 133.852 227.735 133.498C227.735 133.348 227.682 133.209 227.607 133.112C220.101 122.913 212.884 111.685 204.726 102.065C204.608 101.936 204.437 101.839 204.245 101.839C204.042 101.839 203.86 101.936 203.742 102.086L203.678 102.172L174.553 143.537C164.535 153.736 150.229 157.897 136.854 154.133C123.906 150.647 112.851 138.271 110.167 124.844C107.066 110.719 112.498 96.8524 123.19 88.1439C133.882 78.5776 150.208 77.1619 162.878 82.8567C172.736 88.0474 175.954 93.088 175.954 93.088L165.882 107.223C159.125 99.9196 150.037 94.5251 140.521 97.6889C135.132 99.4692 129.861 104.874 127.926 110.419C125.189 119.02 128.097 127.686 134.694 133.145C139.345 137.07 145.739 139.172 152.079 137.381C155.672 136.105 159.125 134.292 161.713 130.882L194.195 85.2268C194.195 85.2268 194.526 84.7871 194.676 84.6155C194.868 84.401 195.125 84.1115 195.339 83.897C195.478 83.7576 195.82 83.4787 195.895 83.4251C199.765 80.7332 204.363 79.8753 209.035 81.0764C213.044 82.0845 216.509 86.2779 218.775 89.817L247.226 130.142C249.568 134.228 251.311 140.319 248.691 144.523M88.7189 101.968C88.8579 101.754 89.1038 101.614 89.3818 101.614C89.6598 101.614 89.9057 101.754 90.0447 101.979L107.077 125.498C105.366 116.832 106.489 107.341 110.413 100.156C110.605 99.8123 110.723 99.6729 110.723 99.6729L103.549 89.6776C103.549 89.6776 103.003 88.9805 102.725 88.648C99.8492 85.1303 96.4812 81.9237 93.1881 80.937C87.8956 79.8109 82.678 81.0764 78.9572 85.1839L48.7954 126.989C46.1438 131.386 43.0004 136.694 44.3048 142.153C44.7218 143.73 45.0318 144.438 45.6092 145.703C47.4054 149.135 51.1048 151.098 54.6011 152.116C55.9696 152.417 56.8357 152.449 56.8357 152.449H95.8397V134.174H66.8968C66.5546 134.153 66.2766 133.874 66.2766 133.531C66.2766 133.391 66.3194 133.262 66.4049 133.155L66.5867 132.909L88.7082 102L88.7189 101.968Z" fill="#E70033"/>
</svg>
