<svg width="208" height="89" viewBox="0 0 208 89" fill="none" xmlns="http://www.w3.org/2000/svg">
<path d="M70.5871 35.778C70.0538 36.9127 68.9164 37.6392 67.7627 37.7834H57.7849V33.1469H65.0962C65.186 33.1469 65.2594 33.0734 65.2594 32.9836C65.2594 32.9455 65.2458 32.9101 65.2268 32.8857C63.3167 30.298 61.48 27.4492 59.4039 25.0085C59.374 24.9758 59.3304 24.9513 59.2815 24.9513C59.2298 24.9513 59.1835 24.9758 59.1536 25.0139L59.1373 25.0357L51.7254 35.5304C49.1758 38.1181 45.5352 39.1738 42.1312 38.2187C38.8361 37.3344 36.0227 34.1944 35.3397 30.7878C34.5506 27.2043 35.9329 23.6861 38.6538 21.4766C41.3748 19.0495 45.5297 18.6904 48.7541 20.1352C51.2628 21.4522 52.0818 22.731 52.0818 22.731L49.5186 26.3172C47.799 24.4643 45.4862 23.0956 43.0645 23.8983C41.6931 24.35 40.3517 25.7213 39.8592 27.1281C39.1626 29.3103 39.9028 31.5088 41.5816 32.8938C42.7652 33.8897 44.3923 34.423 46.0059 33.9686C46.9201 33.6448 47.799 33.185 48.4575 32.3197L56.7238 20.7365C56.7238 20.7365 56.8081 20.625 56.8462 20.5814C56.8952 20.527 56.9605 20.4536 57.0149 20.3991C57.0503 20.3638 57.1374 20.293 57.1564 20.2794C58.1414 19.5965 59.3114 19.3788 60.5005 19.6835C61.5208 19.9393 62.4024 21.0032 62.9793 21.9011L70.2198 32.1319C70.8157 33.1686 71.2592 34.7141 70.5925 35.7808M29.8814 24.984C29.9168 24.9295 29.9794 24.8942 30.0501 24.8942C30.1209 24.8942 30.1835 24.9295 30.2188 24.9867L34.5533 30.9538C34.118 28.7552 34.4037 26.3472 35.4023 24.5241C35.4513 24.4371 35.4812 24.4017 35.4812 24.4017L33.6554 21.8657C33.6554 21.8657 33.5166 21.6889 33.4459 21.6045C32.714 20.712 31.8569 19.8985 31.0188 19.6482C29.6719 19.3624 28.3441 19.6835 27.3972 20.7257L19.7213 31.332C19.0465 32.4476 18.2466 33.7945 18.5785 35.1794C18.6847 35.5794 18.7636 35.759 18.9105 36.0801C19.3676 36.9508 20.3091 37.4487 21.1988 37.7072C21.5471 37.7834 21.7675 37.7916 21.7675 37.7916H31.6936V33.155H24.3279C24.2409 33.1496 24.1701 33.0788 24.1701 32.9918C24.1701 32.9564 24.181 32.9237 24.2028 32.8965L24.249 32.834L29.8787 24.9921L29.8814 24.984Z" fill="#E70033"/>
<path d="M34.5289 48.2482C33.2419 47.1761 31.5957 46.4605 29.8788 46.4605C28.5918 46.4605 26.8749 47.2115 26.8749 48.7135C26.8749 50.2155 28.7714 50.8957 29.9876 51.2902L31.7753 51.8263C35.533 52.9364 38.4308 54.8302 38.4308 59.1946C38.4308 61.8775 37.7859 64.6339 35.6391 66.4569C33.5276 68.2446 30.7033 68.9983 27.9823 68.9983C24.5838 68.9983 21.2561 67.8528 18.5024 65.9209L21.5064 60.2694C23.2587 61.8068 25.3348 63.0611 27.732 63.0611C29.3781 63.0611 31.1304 62.2394 31.1304 60.3429C31.1304 58.4464 28.3768 57.6954 26.8721 57.2655C22.4723 56.0138 19.5745 54.8683 19.5745 49.644C19.5745 44.4198 23.4736 40.5941 28.8748 40.5941C31.593 40.5941 34.9207 41.4539 37.3179 42.8117L34.5262 48.2482H34.5289Z" fill="white" fill-opacity="0.9"/>
<path d="M48.1013 47.2469V51.7555H56.0084V57.6954H48.1013V62.3455H56.4356V68.2854H41.0894V41.3098H56.4356V47.2496H48.1013V47.2469Z" fill="white" fill-opacity="0.9"/>
<path d="M86.5129 53.2221C86.4421 57.1566 86.1564 60.5197 83.7593 63.8828C81.1118 67.567 77.1419 69.1778 72.6332 69.1778C64.1547 69.1778 58.2529 63.4175 58.2529 54.939C58.2529 46.4605 64.1928 40.4145 72.8863 40.4145C78.4316 40.4145 82.7253 42.9178 85.049 47.9625L78.3935 50.7542C77.4276 48.1774 75.3896 46.4605 72.5625 46.4605C67.9477 46.4605 65.5506 50.8603 65.5506 54.9744C65.5506 59.0885 68.0539 63.4175 72.6686 63.4175C75.7107 63.4175 78.0344 61.8421 78.3201 58.732H72.5951V53.2221H86.5129Z" fill="white" fill-opacity="0.9"/>
<path d="M140.826 68.2826H132.098L125.48 57.9076H125.409V68.2826H118.397V41.3069H128.879C134.209 41.3069 138.252 43.8483 138.252 49.6059C138.252 53.3255 136.176 56.5471 132.351 57.2273L140.829 68.2826H140.826ZM125.407 53.4016H126.087C128.375 53.4016 130.952 52.9717 130.952 50.0385C130.952 47.1053 128.375 46.6754 126.087 46.6754H125.407V53.4016Z" fill="white" fill-opacity="0.9"/>
<path d="M168.812 54.2941C168.812 63.023 162.551 69.1778 153.893 69.1778C145.235 69.1778 138.974 63.0257 138.974 54.2941C138.974 46.1367 146.13 40.4145 153.893 40.4145C161.656 40.4145 168.812 46.1394 168.812 54.2941ZM146.271 54.3322C146.271 58.9824 149.705 62.3808 153.893 62.3808C158.08 62.3808 161.514 58.9824 161.514 54.3322C161.514 50.6127 158.08 47.2142 153.893 47.2142C149.705 47.2142 146.271 50.6127 146.271 54.3322Z" fill="white" fill-opacity="0.9"/>
<path d="M184.838 48.2482C183.551 47.1761 181.905 46.4605 180.188 46.4605C178.901 46.4605 177.184 47.2115 177.184 48.7135C177.184 50.2155 179.08 50.8957 180.297 51.2902L182.084 51.8263C185.842 52.9364 188.74 54.8302 188.74 59.1946C188.74 61.8775 188.095 64.6339 185.948 66.4569C183.837 68.2446 181.012 68.9983 178.291 68.9983C174.893 68.9983 171.565 67.8528 168.812 65.9209L171.815 60.2694C173.568 61.8068 175.644 63.0611 178.041 63.0611C179.687 63.0611 181.44 62.2394 181.44 60.3429C181.44 58.4464 178.686 57.6954 177.181 57.2655C172.781 56.0138 169.884 54.8683 169.884 49.644C169.884 44.4198 173.783 40.5941 179.184 40.5941C181.902 40.5941 185.23 41.4539 187.627 42.8117L184.835 48.2482H184.838Z" fill="white" fill-opacity="0.9"/>
<path d="M115.54 53.437L115.532 52.9962V47.957C115.538 46.8169 115.538 45.8891 115.532 45.0374V41.2498H102.79V46.6537V47.2115H109.064V57.2763C108.991 57.5865 108.915 57.7906 108.874 57.8967C107.998 60.2394 104.752 61.8747 102.893 62.6393L102.787 62.6829H102.768C102.583 62.7591 102.382 62.8026 102.167 62.8026C101.952 62.8026 101.75 62.7591 101.565 62.6829H101.552L101.446 62.6393C99.59 61.8747 96.3412 60.2394 95.4623 57.8858C95.4242 57.7878 95.348 57.5838 95.2773 57.2763V47.2115H101.552V41.2498H88.8095V45.0347C88.8041 45.8863 88.8041 46.8142 88.8095 47.9543V52.9935L88.7986 53.437C88.7578 55.3281 88.7143 57.2817 88.9537 58.9252C89.3292 61.521 90.8992 63.7821 93.6175 65.6433C96.4663 67.5942 99.6798 68.484 101.342 68.8404L101.549 68.884V68.8758C101.745 68.9166 101.949 68.9411 102.164 68.9411C102.379 68.9411 102.586 68.9166 102.782 68.8758V68.884L102.988 68.8404C104.651 68.484 107.864 67.5942 110.713 65.6433C113.432 63.7821 115.002 61.521 115.377 58.9252C115.616 57.2817 115.573 55.3254 115.532 53.4343L115.54 53.437Z" fill="#E70033"/>
</svg>
