<svg width="28" height="28" viewBox="0 0 28 28" fill="none" xmlns="http://www.w3.org/2000/svg">
<path d="M27 26H24V2H25C25.2652 2 25.5196 1.89464 25.7071 1.70711C25.8946 1.51957 26 1.26522 26 1C26 0.734784 25.8946 0.48043 25.7071 0.292893C25.5196 0.105357 25.2652 0 25 0H3C2.73478 0 2.48043 0.105357 2.29289 0.292893C2.10536 0.48043 2 0.734784 2 1C2 1.26522 2.10536 1.51957 2.29289 1.70711C2.48043 1.89464 2.73478 2 3 2H4V26H1C0.734784 26 0.48043 26.1054 0.292893 26.2929C0.105357 26.4804 0 26.7348 0 27C0 27.2652 0.105357 27.5196 0.292893 27.7071C0.48043 27.8946 0.734784 28 1 28H27C27.2652 28 27.5196 27.8946 27.7071 27.7071C27.8946 27.5196 28 27.2652 28 27C28 26.7348 27.8946 26.4804 27.7071 26.2929C27.5196 26.1054 27.2652 26 27 26ZM6 2H22V26H18V21C18 20.7348 17.8946 20.4804 17.7071 20.2929C17.5196 20.1054 17.2652 20 17 20H11C10.7348 20 10.4804 20.1054 10.2929 20.2929C10.1054 20.4804 10 20.7348 10 21V26H6V2ZM16 26H12V22H16V26ZM9 6C9 5.73478 9.10536 5.48043 9.29289 5.29289C9.48043 5.10536 9.73478 5 10 5H12C12.2652 5 12.5196 5.10536 12.7071 5.29289C12.8946 5.48043 13 5.73478 13 6C13 6.26522 12.8946 6.51957 12.7071 6.70711C12.5196 6.89464 12.2652 7 12 7H10C9.73478 7 9.48043 6.89464 9.29289 6.70711C9.10536 6.51957 9 6.26522 9 6ZM15 6C15 5.73478 15.1054 5.48043 15.2929 5.29289C15.4804 5.10536 15.7348 5 16 5H18C18.2652 5 18.5196 5.10536 18.7071 5.29289C18.8946 5.48043 19 5.73478 19 6C19 6.26522 18.8946 6.51957 18.7071 6.70711C18.5196 6.89464 18.2652 7 18 7H16C15.7348 7 15.4804 6.89464 15.2929 6.70711C15.1054 6.51957 15 6.26522 15 6ZM9 11C9 10.7348 9.10536 10.4804 9.29289 10.2929C9.48043 10.1054 9.73478 10 10 10H12C12.2652 10 12.5196 10.1054 12.7071 10.2929C12.8946 10.4804 13 10.7348 13 11C13 11.2652 12.8946 11.5196 12.7071 11.7071C12.5196 11.8946 12.2652 12 12 12H10C9.73478 12 9.48043 11.8946 9.29289 11.7071C9.10536 11.5196 9 11.2652 9 11ZM15 11C15 10.7348 15.1054 10.4804 15.2929 10.2929C15.4804 10.1054 15.7348 10 16 10H18C18.2652 10 18.5196 10.1054 18.7071 10.2929C18.8946 10.4804 19 10.7348 19 11C19 11.2652 18.8946 11.5196 18.7071 11.7071C18.5196 11.8946 18.2652 12 18 12H16C15.7348 12 15.4804 11.8946 15.2929 11.7071C15.1054 11.5196 15 11.2652 15 11ZM9 16C9 15.7348 9.10536 15.4804 9.29289 15.2929C9.48043 15.1054 9.73478 15 10 15H12C12.2652 15 12.5196 15.1054 12.7071 15.2929C12.8946 15.4804 13 15.7348 13 16C13 16.2652 12.8946 16.5196 12.7071 16.7071C12.5196 16.8946 12.2652 17 12 17H10C9.73478 17 9.48043 16.8946 9.29289 16.7071C9.10536 16.5196 9 16.2652 9 16ZM15 16C15 15.7348 15.1054 15.4804 15.2929 15.2929C15.4804 15.1054 15.7348 15 16 15H18C18.2652 15 18.5196 15.1054 18.7071 15.2929C18.8946 15.4804 19 15.7348 19 16C19 16.2652 18.8946 16.5196 18.7071 16.7071C18.5196 16.8946 18.2652 17 18 17H16C15.7348 17 15.4804 16.8946 15.2929 16.7071C15.1054 16.5196 15 16.2652 15 16Z" fill="black"/>
</svg>
